# xmcd CD database file generated by Grip 2.5
# 
# Track frame offsets:
#       207
#       10342
#       24840
#       39235
#       48215
#       59077
#       70530
#       78562
#       89260
#       104062
#       115147
#       124660
#       134885
#       146160
#       155295
# 
# Disc length: 2238 seconds
# 
# Revision: 4
# Processed by: cddbd v1.4PL0 Copyright (c) Steve Scherf et al.
# Submitted via: Gronk 1.4
# 
DISCID=cc08bc0f
DTITLE=The Carpetbaggers - Country Miles Apart
DYEAR=1900
DGENRE=country
TTITLE0=Three Walls
TTITLE1=Empties at My Feet
TTITLE2=That's You
TTITLE3=Lose Your Will
TTITLE4=I'm the Sherrif of This Town
TTITLE5=Silence
TTITLE6=One Dead Man Ago
TTITLE7=Someplace to Cry
TTITLE8=Die With the Blues
TTITLE9=Always a Pallbearer
TTITLE10=I Alone (Was in Prayer)
TTITLE11=Cry Myself to Sleep
TTITLE12=Reasons for Living
TTITLE13=I'm Not Long for This Girl
TTITLE14=The Cold Hard Facts of Life
EXTD=
EXTT0=
EXTT1=
EXTT2=
EXTT3=
EXTT4=
EXTT5=
EXTT6=
EXTT7=
EXTT8=
EXTT9=
EXTT10=
EXTT11=
EXTT12=
EXTT13=
EXTT14=
PLAYORDER=
